<?xml version="1.0" encoding="UTF-8"?>
<svg version="1.1" xmlns="http://www.w3.org/2000/svg" width="385" height="204">
<path d="M0 0 C127.05 0 254.1 0 385 0 C385 67.32 385 134.64 385 204 C257.95 204 130.9 204 0 204 C0 136.68 0 69.36 0 0 Z " fill="#FEFDFD" transform="translate(0,0)"/>
<path d="M0 0 C21.78 0 43.56 0 66 0 C66 3.96 66 7.92 66 12 C53.79 12 41.58 12 29 12 C29 15.3 29 18.6 29 22 C33.62 22 38.24 22 43 22 C43 32.23 43 42.46 43 53 C47.29 53 51.58 53 56 53 C56 42.77 56 32.54 56 22 C59.3 22 62.6 22 66 22 C66 36.52 66 51.04 66 66 C44.22 66 22.44 66 0 66 C0 44.22 0 22.44 0 0 Z " fill="#EF0505" transform="translate(67,90)"/>
<path d="M0 0 C4.01703023 4.83000063 4 7.34551679 4 14 C-3.92 14 -11.84 14 -20 14 C-18.54711014 18.5841963 -18.54711014 18.5841963 -17 20 C-13.63370749 20.14636054 -11.21580438 20.07193479 -8 19 C-8 18.01 -8 17.02 -8 16 C-4.37 16 -0.74 16 3 16 C2.875 19.25 2.875 19.25 2 23 C-4.16574825 28.20663185 -10.22047081 28.59316058 -18 28 C-22.19843401 27.33778643 -25.57750308 26.38593742 -28.671875 23.37109375 C-31.86085441 18.93697912 -32.71725721 14.8115625 -32.42578125 9.3984375 C-31.59551957 4.72155062 -29.49502867 1.49502867 -26.125 -1.875 C-18.20331554 -6.06883295 -6.94330505 -5.52630402 0 0 Z " fill="#EF0A0A" transform="translate(167,115)"/>
<path d="M0 0 C4.62 0 9.24 0 14 0 C17 6 17 6 17 8 C17.66 8 18.32 8 19 8 C19.309375 7.21625 19.61875 6.4325 19.9375 5.625 C21 3 21 3 22 1 C26.29 1 30.58 1 35 1 C33.02940171 4.94119657 30.73458301 8.23888413 28.14453125 11.78125 C26.84635509 13.86525219 26.84635509 13.86525219 27.0390625 15.8984375 C28.44245551 18.96764661 30.47646531 21.49908803 32.5625 24.125 C37 29.7408953 37 29.7408953 37 32 C32.38 32 27.76 32 23 32 C21.35 29.03 19.7 26.06 18 23 C14.87096753 25.75983781 14.87096753 25.75983781 13.625 29.1875 C11 32 11 32 7.8515625 32.38671875 C4.54878271 32.37597218 1.29226643 32.25691096 -2 32 C-0.10128168 27.60130256 2.98604048 24.13085962 6.07421875 20.50976562 C7.48959516 18.80981969 7.48959516 18.80981969 9 16 C8.2226929 12.04171307 5.90775856 9.38203661 3.375 6.3125 C0 2.21428571 0 2.21428571 0 0 Z " fill="#EF0E0E" transform="translate(173,111)"/>
<path d="M0 0 C3.46679688 0.04882812 3.46679688 0.04882812 6.93359375 0.09765625 C6.93359375 3.06765625 6.93359375 6.03765625 6.93359375 9.09765625 C9.24359375 9.09765625 11.55359375 9.09765625 13.93359375 9.09765625 C13.93359375 11.73765625 13.93359375 14.37765625 13.93359375 17.09765625 C11.62359375 17.09765625 9.31359375 17.09765625 6.93359375 17.09765625 C7.26359375 22.04765625 7.59359375 26.99765625 7.93359375 32.09765625 C9.91359375 32.42765625 11.89359375 32.75765625 13.93359375 33.09765625 C13.97601098 35.430604 13.97452312 37.76468192 13.93359375 40.09765625 C12.14790214 41.88334786 9.59705637 41.31233728 7.18359375 41.34765625 C6.136875 41.3734375 5.09015625 41.39921875 4.01171875 41.42578125 C0.27319138 41.02725803 -2.38892669 39.77513581 -5.06640625 37.09765625 C-5.15310057 35.60893765 -5.17344119 34.11621125 -5.1640625 32.625 C-5.15922852 31.27631836 -5.15922852 31.27631836 -5.15429688 29.90039062 C-5.14591797 28.95486328 -5.13753906 28.00933594 -5.12890625 27.03515625 C-5.12439453 26.08576172 -5.11988281 25.13636719 -5.11523438 24.15820312 C-5.10340735 21.8046256 -5.0869265 19.45117148 -5.06640625 17.09765625 C-6.38640625 17.09765625 -7.70640625 17.09765625 -9.06640625 17.09765625 C-9.06640625 14.45765625 -9.06640625 11.81765625 -9.06640625 9.09765625 C-7.41640625 9.09765625 -5.76640625 9.09765625 -4.06640625 9.09765625 C-3.92203125 7.79828125 -3.77765625 6.49890625 -3.62890625 5.16015625 C-3.07168497 0.1451647 -3.07168497 0.1451647 0 0 Z " fill="#EF0E0E" transform="translate(221.06640625,101.90234375)"/>
<path d="M0 0 C2.97 0 5.94 0 9 0 C9 3.3 9 6.6 9 10 C10.98 10 12.96 10 15 10 C15 12.31 15 14.62 15 17 C13.02 17 11.04 17 9 17 C9.33 21.95 9.66 26.9 10 32 C11.98 32.33 13.96 32.66 16 33 C16.04241723 35.33294775 16.04092937 37.66702567 16 40 C14.13748319 41.86251681 11.2496451 41.30214039 8.75 41.375 C7.61046875 41.42398438 6.4709375 41.47296875 5.296875 41.5234375 C2 41 2 41 -0.90234375 39.05859375 C-3.79320878 34.84342184 -3.56788495 31.66554202 -3.3125 26.6875 C-3.28994141 25.85154297 -3.26738281 25.01558594 -3.24414062 24.15429688 C-3.1855061 22.10208851 -3.09583215 20.05080798 -3 18 C-4.32 18 -5.64 18 -7 18 C-7 15.03 -7 12.06 -7 9 C-5.35 9 -3.7 9 -2 9 C-1.34 6.03 -0.68 3.06 0 0 Z " fill="#EF0B0B" transform="translate(307,102)"/>
<path d="M0 0 C0.89847656 0.00257812 1.79695313 0.00515625 2.72265625 0.0078125 C3.61855469 0.00523438 4.51445312 0.00265625 5.4375 0 C7.78515625 0.1328125 7.78515625 0.1328125 9.78515625 1.1328125 C9.78515625 3.4428125 9.78515625 5.7528125 9.78515625 8.1328125 C8.13515625 8.4628125 6.48515625 8.7928125 4.78515625 9.1328125 C4.45515625 10.4528125 4.12515625 11.7728125 3.78515625 13.1328125 C5.76515625 13.1328125 7.74515625 13.1328125 9.78515625 13.1328125 C9.78515625 15.4428125 9.78515625 17.7528125 9.78515625 20.1328125 C7.80515625 20.1328125 5.82515625 20.1328125 3.78515625 20.1328125 C3.78515625 27.7228125 3.78515625 35.3128125 3.78515625 43.1328125 C0.15515625 43.1328125 -3.47484375 43.1328125 -7.21484375 43.1328125 C-7.21484375 35.5428125 -7.21484375 27.9528125 -7.21484375 20.1328125 C-8.86484375 20.1328125 -10.51484375 20.1328125 -12.21484375 20.1328125 C-12.21484375 17.4928125 -12.21484375 14.8528125 -12.21484375 12.1328125 C-10.89484375 12.1328125 -9.57484375 12.1328125 -8.21484375 12.1328125 C-8.31796875 11.2459375 -8.42109375 10.3590625 -8.52734375 9.4453125 C-8.11816287 5.10799518 -6.45353078 3.89754533 -3.21484375 1.1328125 C-2.21484375 0.1328125 -2.21484375 0.1328125 0 0 Z " fill="#EE0202" transform="translate(288.21484375,98.8671875)"/>
<path d="M0 0 C3.96 0 7.92 0 12 0 C12 14.19 12 28.38 12 43 C8.04 43 4.08 43 0 43 C0 28.81 0 14.62 0 0 Z " fill="#EF0F0F" transform="translate(240,100)"/>
<path d="M0 0 C3.96 0 7.92 0 12 0 C12 10.56 12 21.12 12 32 C8.04 32 4.08 32 0 32 C0 21.44 0 10.88 0 0 Z " fill="#EF0D0D" transform="translate(260,111)"/>
<path d="M0 0 C2.0625 1.6875 2.0625 1.6875 4 4 C3.8125 6.125 3.8125 6.125 3 9 C2.78815557 10.76808622 2.60255273 12.53943358 2.4375 14.3125 C2.35371094 15.19550781 2.26992188 16.07851562 2.18359375 16.98828125 C2.12300781 17.65214844 2.06242187 18.31601563 2 19 C3.98 19 5.96 19 8 19 C8 21.97 8 24.94 8 28 C6.02 28 4.04 28 2 28 C2 32.62 2 37.24 2 42 C1.67 42 1.34 42 1 42 C1 37.05 1 32.1 1 27 C2.98 27 4.96 27 7 27 C7 24.69 7 22.38 7 20 C5.02 20 3.04 20 1 20 C1 16.7 1 13.4 1 10 C-1.97 10 -4.94 10 -8 10 C-8.33 8.35 -8.66 6.7 -9 5 C-7.35 4.34 -5.7 3.68 -4 3 C-3.67 3.33 -3.34 3.66 -3 4 C-2.67 3.01 -2.34 2.02 -2 1 C-1.34 0.67 -0.68 0.34 0 0 Z " fill="#F5C7C7" transform="translate(315,92)"/>
<path d="M0 0 C2.31 0.33 4.62 0.66 7 1 C6.67 1.99 6.34 2.98 6 4 C5.01 3.34 4.02 2.68 3 2 C3.66 3.65 4.32 5.3 5 7 C4.34 7 3.68 7 3 7 C2.67 8.65 2.34 10.3 2 12 C1.401875 11.649375 0.80375 11.29875 0.1875 10.9375 C-2.10813214 9.66695302 -2.10813214 9.66695302 -5 11 C-5.66 10.34 -6.32 9.68 -7 9 C-7.33 10.32 -7.66 11.64 -8 13 C-8.33 12.67 -8.66 12.34 -9 12 C-9.33 13.98 -9.66 15.96 -10 18 C-11.65 16.35 -13.3 14.7 -15 13 C-14.34 12.67 -13.68 12.34 -13 12 C-12.67 11.01 -12.34 10.02 -12 9 C-9.9375 7.8125 -9.9375 7.8125 -8 7 C-8 6.01 -8 5.02 -8 4 C-7.34 4 -6.68 4 -6 4 C-5.67 4.66 -5.34 5.32 -5 6 C-3.2925002 4.71937515 -1.62626404 3.38232443 0 2 C0 1.34 0 0.68 0 0 Z " fill="#F1F1F1" transform="translate(41,175)"/>
<path d="M0 0 C3.96 0 7.92 0 12 0 C12 2.64 12 5.28 12 8 C8.04 8 4.08 8 0 8 C0 5.36 0 2.72 0 0 Z " fill="#F01313" transform="translate(260,100)"/>
<path d="M0 0 C3 2 3 2 3.75 4.375 C3.99286095 6.92504 3.8028831 8.59135071 3 11 C-4 11 -4 11 -7 10 C-6.67 11.32 -6.34 12.64 -6 14 C-7.32 13.67 -8.64 13.34 -10 13 C-10 14.65 -10 16.3 -10 18 C-12.78489278 16.60755361 -14.12301529 14.44008012 -16 12 C-14.68 12.33 -13.36 12.66 -12 13 C-11.67 12.01 -11.34 11.02 -11 10 C-7.37544634 6.87538477 -3.66741095 5.00015949 1 4 C0.67 2.68 0.34 1.36 0 0 Z " fill="#F1F1F1" transform="translate(316,2)"/>
<path d="M0 0 C7.59 0 15.18 0 23 0 C23 0.33 23 0.66 23 1 C19.37 1 15.74 1 12 1 C12 2.32 12 3.64 12 5 C8.53076119 7.31282587 7.07794425 7.42478586 3 7 C1.125 5.75 1.125 5.75 0 4 C0 2.68 0 1.36 0 0 Z " fill="#FCD6D6" transform="translate(147,129)"/>
<path d="M0 0 C1.32 0.33 2.64 0.66 4 1 C5.48576635 5.01156915 4.80747878 5.48130304 3 10 C-2.61 10 -8.22 10 -14 10 C-12 8 -12 8 -8.875 7.875 C-7.92625 7.91625 -6.9775 7.9575 -6 8 C-5.67 6.35 -5.34 4.7 -5 3 C-3.68 3.33 -2.36 3.66 -1 4 C-0.67 2.68 -0.34 1.36 0 0 Z " fill="#F2E0E0" transform="translate(159,102)"/>
<path d="M0 0 C1.65 0.33 3.3 0.66 5 1 C4.25 5.75 4.25 5.75 2 8 C1.34 8 0.68 8 0 8 C-1.34882408 8.63474075 -2.6846659 9.29848848 -4 10 C-4.66 9.34 -5.32 8.68 -6 8 C-5.625 5.375 -5.625 5.375 -5 3 C-4.01 3 -3.02 3 -2 3 C-1.34 2.01 -0.68 1.02 0 0 Z " fill="#F3F3F3" transform="translate(216,155)"/>
<path d="M0 0 C1.32 0 2.64 0 4 0 C4.6875 2.3125 4.6875 2.3125 5 5 C3.6875 6.8125 3.6875 6.8125 2 8 C1.34 8 0.68 8 0 8 C-1.34882408 8.63474075 -2.6846659 9.29848848 -4 10 C-4.66 9.34 -5.32 8.68 -6 8 C-5.625 5.375 -5.625 5.375 -5 3 C-4.01 3 -3.02 3 -2 3 C-1.34 2.01 -0.68 1.02 0 0 Z " fill="#F3F3F3" transform="translate(159,16)"/>
<path d="M0 0 C2.375 -0.125 2.375 -0.125 5 0 C5.66 0.66 6.32 1.32 7 2 C6.67 2.99 6.34 3.98 6 5 C5.34 4.01 4.68 3.02 4 2 C4.061875 2.721875 4.12375 3.44375 4.1875 4.1875 C3.96253379 7.56199315 3.00130237 9.30593911 1 12 C0.34 12 -0.32 12 -1 12 C-3.74375671 9.04518508 -4 8.22528092 -4 4 C-2.68 3.34 -1.36 2.68 0 2 C0 1.34 0 0.68 0 0 Z " fill="#F2F2F2" transform="translate(179,89)"/>
<path d="M0 0 C0.99 0.33 1.98 0.66 3 1 C3.38218767 2.65614657 3.71395102 4.32457024 4 6 C3.67 6.33 3.34 6.66 3 7 C3 8.32 3 9.64 3 11 C2.01 11.33 1.02 11.66 0 12 C0 11.34 0 10.68 0 10 C-0.61875 10.20625 -1.2375 10.4125 -1.875 10.625 C-2.57625 10.74875 -3.2775 10.8725 -4 11 C-4.66 10.34 -5.32 9.68 -6 9 C-4.86280581 5.58841744 -3.95657056 4.88145399 -1 3 C-0.34 3 0.32 3 1 3 C0.67 2.01 0.34 1.02 0 0 Z " fill="#F2F2F2" transform="translate(41,89)"/>
<path d="M0 0 C3.0625 0.3125 3.0625 0.3125 4.9375 1.625 C6.0625 3.3125 6.0625 3.3125 6.0625 6.3125 C2.1025 6.3125 -1.8575 6.3125 -5.9375 6.3125 C-4.47848361 0.47643443 -4.47848361 0.47643443 0 0 Z " fill="#FBC7C7" transform="translate(152.9375,117.6875)"/>
<path d="M0 0 C1.55078125 0.98828125 1.55078125 0.98828125 3 3 C2.89140867 5.84978871 2.64357584 8.39495008 2.1875 11.1875 C2.07857422 11.93708984 1.96964844 12.68667969 1.85742188 13.45898438 C1.58651277 15.30823349 1.29519943 17.15447261 1 19 C0.67 19 0.34 19 0 19 C0 16.69 0 14.38 0 12 C-1.98 12 -3.96 12 -6 12 C-5.67 10.35 -5.34 8.7 -5 7 C-3.35 7 -1.7 7 0 7 C0 4.69 0 2.38 0 0 Z " fill="#F3C1C1" transform="translate(298,100)"/>
<path d="M0 0 C1.65 0 3.3 0 5 0 C4.01 0.495 4.01 0.495 3 1 C3.309375 2.0828125 3.309375 2.0828125 3.625 3.1875 C4.05952211 6.44641585 3.41680669 8.08304504 2 11 C-0.86724686 10.42655063 -1.8614515 10.1385485 -4 8 C-4 6.68 -4 5.36 -4 4 C-2.68 3.34 -1.36 2.68 0 2 C0 1.34 0 0.68 0 0 Z " fill="#F2F2F2" transform="translate(179,3)"/>
<path d="M0 0 C0.66 0 1.32 0 2 0 C2 0.99 2 1.98 2 3 C2.99 3 3.98 3 5 3 C5.33 2.01 5.66 1.02 6 0 C6 4 6 4 5 7 C4.34 7 3.68 7 3 7 C2.67 6.34 2.34 5.68 2 5 C1.01 6.485 1.01 6.485 0 8 C-1.32 7.67 -2.64 7.34 -4 7 C-4 5.68 -4 4.36 -4 3 C-2.68 2.67 -1.36 2.34 0 2 C0 1.34 0 0.68 0 0 Z " fill="#F2F2F2" transform="translate(77,70)"/>
<path d="M0 0 C0.33 0 0.66 0 1 0 C1.66 2.31 2.32 4.62 3 7 C2 8 2 8 -1.16015625 8.09765625 C-3.09181641 8.08025391 -3.09181641 8.08025391 -5.0625 8.0625 C-6.35285156 8.05347656 -7.64320312 8.04445312 -8.97265625 8.03515625 C-9.97167969 8.02355469 -10.97070312 8.01195312 -12 8 C-11.67 7.34 -11.34 6.68 -11 6 C-10.01 6 -9.02 6 -8 6 C-7.67 5.34 -7.34 4.68 -7 4 C-6.01 4.33 -5.02 4.66 -4 5 C-3.67 4.34 -3.34 3.68 -3 3 C-2.34 3 -1.68 3 -1 3 C-0.67 2.01 -0.34 1.02 0 0 Z " fill="#E81212" transform="translate(89,148)"/>
<path d="M0 0 C1.32 1.65 2.64 3.3 4 5 C3.34 6.32 2.68 7.64 2 9 C1.34 9 0.68 9 0 9 C0 8.34 0 7.68 0 7 C-0.66 7 -1.32 7 -2 7 C-2.33 7.66 -2.66 8.32 -3 9 C-3.99 7.68 -4.98 6.36 -6 5 C-5.67 4.34 -5.34 3.68 -5 3 C-4.67 3.33 -4.34 3.66 -4 4 C-3.67 3.01 -3.34 2.02 -3 1 C-2.01 0.67 -1.02 0.34 0 0 Z " fill="#E50D0D" transform="translate(97,144)"/>
<path d="M0 0 C1.42944945 2.35438733 2.08661261 3.48032433 1.625 6.25 C1.41875 6.8275 1.2125 7.405 1 8 C0.34 8 -0.32 8 -1 8 C-1 7.34 -1 6.68 -1 6 C-1.99 6 -2.98 6 -4 6 C-4.33 6.66 -4.66 7.32 -5 8 C-5.66 6.35 -6.32 4.7 -7 3 C-3.375 0 -3.375 0 0 0 Z " fill="#F3F3F3" transform="translate(42,6)"/>
<path d="M0 0 C1.2065625 0.0309375 1.2065625 0.0309375 2.4375 0.0625 C2.4375 1.0525 2.4375 2.0425 2.4375 3.0625 C1.7775 3.0625 1.1175 3.0625 0.4375 3.0625 C0.1075 3.7225 -0.2225 4.3825 -0.5625 5.0625 C0.7575 4.7325 2.0775 4.4025 3.4375 4.0625 C2.7775 5.3825 2.1175 6.7025 1.4375 8.0625 C-2.4375 7.1875 -2.4375 7.1875 -3.5625 6.0625 C-3.6875 3.5625 -3.6875 3.5625 -3.5625 1.0625 C-2.5625 0.0625 -2.5625 0.0625 0 0 Z " fill="#F3F3F3" transform="translate(117.5625,131.9375)"/>
<path d="M0 0 C2.0625 2.3125 2.0625 2.3125 4 5 C3.67 5.99 3.34 6.98 3 8 C1.02 7.34 -0.96 6.68 -3 6 C-3.33 6.66 -3.66 7.32 -4 8 C-4.66 6.35 -5.32 4.7 -6 3 C-5.01 3.495 -5.01 3.495 -4 4 C-2.68 2.68 -1.36 1.36 0 0 Z " fill="#F1F1F1" transform="translate(178,178)"/>
<path d="M0 0 C0.99 0 1.98 0 3 0 C3.144375 0.61875 3.28875 1.2375 3.4375 1.875 C3.93152225 4.03258322 3.93152225 4.03258322 5 6 C3.68 6 2.36 6 1 6 C0.67 6.66 0.34 7.32 0 8 C-0.99 7.01 -1.98 6.02 -3 5 C-2.67 6.65 -2.34 8.3 -2 10 C-4.50037734 7.82575883 -5.43628586 6.26954202 -6 3 C-4 3 -2 3 0 3 C0 2.01 0 1.02 0 0 Z " fill="#F1F1F1" transform="translate(185,172)"/>
<path d="M0 0 C1.2065625 0.0309375 1.2065625 0.0309375 2.4375 0.0625 C2.4375 1.0525 2.4375 2.0425 2.4375 3.0625 C1.7775 3.0625 1.1175 3.0625 0.4375 3.0625 C0.1075 3.7225 -0.2225 4.3825 -0.5625 5.0625 C0.4275 5.3925 1.4175 5.7225 2.4375 6.0625 C2.1075 6.7225 1.7775 7.3825 1.4375 8.0625 C-2.4375 7.1875 -2.4375 7.1875 -3.5625 6.0625 C-3.6875 3.5625 -3.6875 3.5625 -3.5625 1.0625 C-2.5625 0.0625 -2.5625 0.0625 0 0 Z " fill="#F4F4F4" transform="translate(59.5625,78.9375)"/>
<path d="M0 0 C1.32 0 2.64 0 4 0 C5.42944945 2.35438733 6.08661261 3.48032433 5.625 6.25 C5.41875 6.8275 5.2125 7.405 5 8 C4.34 7.67 3.68 7.34 3 7 C3 6.67 3 6.34 3 6 C1.68 5.34 0.36 4.68 -1 4 C-0.67 2.68 -0.34 1.36 0 0 Z " fill="#F1F1F1" transform="translate(313,179)"/>
<path d="M0 0 C1.37478516 0.01740234 1.37478516 0.01740234 2.77734375 0.03515625 C3.69644531 0.04417969 4.61554688 0.05320312 5.5625 0.0625 C6.27277344 0.07410156 6.98304688 0.08570312 7.71484375 0.09765625 C7.71484375 0.42765625 7.71484375 0.75765625 7.71484375 1.09765625 C7.12316406 1.11183594 6.53148437 1.12601562 5.921875 1.140625 C1.63149711 1.39958745 -0.73615069 1.69733969 -4.28515625 4.28515625 C-6.46272891 7.34736781 -7.02597702 9.3827539 -7.28515625 13.09765625 C-8.93515625 13.09765625 -10.58515625 13.09765625 -12.28515625 13.09765625 C-10.96515625 12.76765625 -9.64515625 12.43765625 -8.28515625 12.09765625 C-8.38828125 11.21078125 -8.49140625 10.32390625 -8.59765625 9.41015625 C-8.18847537 5.07283893 -6.52384328 3.86238908 -3.28515625 1.09765625 C-2.28515625 0.09765625 -2.28515625 0.09765625 0 0 Z " fill="#F45D5D" transform="translate(288.28515625,98.90234375)"/>
<path d="M0 0 C1.98 0.495 1.98 0.495 4 1 C4.6875 2.75 4.6875 2.75 5 5 C3.5625 7.25 3.5625 7.25 2 9 C-1.07692308 4.56923077 -1.07692308 4.56923077 -0.6875 1.6875 C-0.460625 1.130625 -0.23375 0.57375 0 0 Z " fill="#F2F2F2" transform="translate(159,188)"/>
<path d="M0 0 C5.28 0 10.56 0 16 0 C16 2.64 16 5.28 16 8 C15.67 8 15.34 8 15 8 C14.67 6.35 14.34 4.7 14 3 C13.01 3.99 12.02 4.98 11 6 C10.34 5.67 9.68 5.34 9 5 C9.99 3.68 10.98 2.36 12 1 C8.04 1 4.08 1 0 1 C0 0.67 0 0.34 0 0 Z " fill="#F9A4A4" transform="translate(196,111)"/>
<path d="M0 0 C0.33 0 0.66 0 1 0 C1 2.31 1 4.62 1 7 C0.21625 7.103125 -0.5675 7.20625 -1.375 7.3125 C-4.33045181 7.77595022 -4.33045181 7.77595022 -6 11 C-6.66 9.35 -7.32 7.7 -8 6 C-6.35 5.67 -4.7 5.34 -3 5 C-3 4.34 -3 3.68 -3 3 C-2.34 3 -1.68 3 -1 3 C-0.67 2.01 -0.34 1.02 0 0 Z " fill="#E71C1C" transform="translate(297,100)"/>
<path d="M0 0 C1.65 0.33 3.3 0.66 5 1 C5 2.32 5 3.64 5 5 C4.34 5 3.68 5 3 5 C2.67 5.99 2.34 6.98 2 8 C0.4375 5.6875 0.4375 5.6875 -1 3 C-0.67 2.01 -0.34 1.02 0 0 Z " fill="#F2F2F2" transform="translate(216,69)"/>
<path d="M0 0 C0.33 1.65 0.66 3.3 1 5 C0.01 4.67 -0.98 4.34 -2 4 C-2 5.65 -2 7.3 -2 9 C-3.65 7.68 -5.3 6.36 -7 5 C-6.67 4.34 -6.34 3.68 -6 3 C-5.34 3.33 -4.68 3.66 -4 4 C-4 3.01 -4 2.02 -4 1 C-2 0 -2 0 0 0 Z " fill="#F1F1F1" transform="translate(365,150)"/>
<path d="M0 0 C1.65 0.33 3.3 0.66 5 1 C5 2.32 5 3.64 5 5 C4.34 5 3.68 5 3 5 C2.67 5.99 2.34 6.98 2 8 C0.4375 5.6875 0.4375 5.6875 -1 3 C-0.67 2.01 -0.34 1.02 0 0 Z " fill="#F1F1F1" transform="translate(296,16)"/>
<path d="M0 0 C1.32 0.66 2.64 1.32 4 2 C3.625 3.9375 3.625 3.9375 3 6 C2.01 6.495 2.01 6.495 1 7 C0.01 6.01 -0.98 5.02 -2 4 C-1.34 2.68 -0.68 1.36 0 0 Z " fill="#F3F3F3" transform="translate(349,158)"/>
<path d="M0 0 C1.32 0.66 2.64 1.32 4 2 C4 3.32 4 4.64 4 6 C3.01 6.33 2.02 6.66 1 7 C-1 6 -1 6 -1.75 4.0625 C-1.8325 3.381875 -1.915 2.70125 -2 2 C-1.34 1.34 -0.68 0.68 0 0 Z " fill="#F3F3F3" transform="translate(74,158)"/>
<path d="M0 0 C1.32 0.66 2.64 1.32 4 2 C3.625 3.9375 3.625 3.9375 3 6 C2.01 6.495 2.01 6.495 1 7 C0.01 6.01 -0.98 5.02 -2 4 C-1.34 2.68 -0.68 1.36 0 0 Z " fill="#F3F3F3" transform="translate(292,19)"/>
<path d="M0 0 C2.475 0.495 2.475 0.495 5 1 C4.67 2.65 4.34 4.3 4 6 C2.68 5.67 1.36 5.34 0 5 C0 3.35 0 1.7 0 0 Z " fill="#F2F2F2" transform="translate(153,192)"/>
<path d="M0 0 C0.66 0 1.32 0 2 0 C2.33 0.66 2.66 1.32 3 2 C4.65 1.67 6.3 1.34 8 1 C8 1.99 8 2.98 8 4 C7.34 4 6.68 4 6 4 C5.67 4.99 5.34 5.98 5 7 C4.34 7 3.68 7 3 7 C0.85143123 4.85143123 0.55882132 3.8872435 0 1 C0 0.67 0 0.34 0 0 Z " fill="#F6F6F6" transform="translate(33,179)"/>
<path d="M0 0 C1.32 0 2.64 0 4 0 C4.33 1.32 4.66 2.64 5 4 C3.02 4.99 3.02 4.99 1 6 C0.34 4.35 -0.32 2.7 -1 1 C-0.67 0.67 -0.34 0.34 0 0 Z " fill="#F1F1F1" transform="translate(291,192)"/>
<path d="M0 0 C2.0625 1.75 2.0625 1.75 4 4 C3.9375 6.1875 3.9375 6.1875 3 8 C2.01 8.33 1.02 8.66 0 9 C-0.66 7.35 -1.32 5.7 -2 4 C-1.01 4.33 -0.02 4.66 1 5 C0.67 3.35 0.34 1.7 0 0 Z " fill="#F0F0F0" transform="translate(235,145)"/>
<path d="M0 0 C0.33 1.65 0.66 3.3 1 5 C0.34 4.67 -0.32 4.34 -1 4 C-1.33 5.98 -1.66 7.96 -2 10 C-4 9 -4 9 -4.6875 7.1875 C-5.03283531 4.77015282 -4.86347502 3.27643414 -4 1 C-2 0 -2 0 0 0 Z " fill="#F0F0F0" transform="translate(33,97)"/>
<path d="M0 0 C1.32 0.66 2.64 1.32 4 2 C3.67 3.32 3.34 4.64 3 6 C1.68 5.67 0.36 5.34 -1 5 C-1 1 -1 1 0 0 Z " fill="#F2F2F2" transform="translate(349,72)"/>
<path d="M0 0 C2.125 0.375 2.125 0.375 4 1 C3.01 2.32 2.02 3.64 1 5 C1.66 5.33 2.32 5.66 3 6 C1.68 6.33 0.36 6.66 -1 7 C-1.625 4.625 -1.625 4.625 -2 2 C-1.34 1.34 -0.68 0.68 0 0 Z " fill="#F3F3F3" transform="translate(195,79)"/>
<path d="M0 0 C1.2065625 0.0309375 1.2065625 0.0309375 2.4375 0.0625 C0.9525 2.5375 0.9525 2.5375 -0.5625 5.0625 C0.0975 5.3925 0.7575 5.7225 1.4375 6.0625 C-0.5 6.625 -0.5 6.625 -2.5625 7.0625 C-3.5625 6.0625 -3.5625 6.0625 -3.6875 3.5625 C-3.51717518 0.15600356 -3.41884482 0.08338646 0 0 Z " fill="#F3F3F3" transform="translate(117.5625,45.9375)"/>
<path d="M0 0 C0.33 0 0.66 0 1 0 C1.66 2.31 2.32 4.62 3 7 C1.35 7.33 -0.3 7.66 -2 8 C-1.125 1.125 -1.125 1.125 0 0 Z " fill="#E60A0A" transform="translate(89,148)"/>
<path d="M0 0 C1.98 0 3.96 0 6 0 C6.66 1.65 7.32 3.3 8 5 C7.34 4.67 6.68 4.34 6 4 C6 3.34 6 2.68 6 2 C5.34 2 4.68 2 4 2 C4.33 3.65 4.66 5.3 5 7 C2.47411298 4.63707344 1.11179163 3.33537489 0 0 Z " fill="#E51313" transform="translate(98,141)"/>
<path d="M0 0 C-0.66 2.97 -1.32 5.94 -2 9 C-3.65 7.68 -5.3 6.36 -7 5 C-6.67 4.34 -6.34 3.68 -6 3 C-5.34 3.33 -4.68 3.66 -4 4 C-4 3.01 -4 2.02 -4 1 C-2 0 -2 0 0 0 Z " fill="#F0F0F0" transform="translate(33,11)"/>
<path d="M0 0 C2.31 0.33 4.62 0.66 7 1 C7.33 2.32 7.66 3.64 8 5 C7.34 5 6.68 5 6 5 C5.34 4.34 4.68 3.68 4 3 C3.67 3.99 3.34 4.98 3 6 C0 2.25 0 2.25 0 0 Z " fill="#F1F1F1" transform="translate(316,89)"/>
<path d="M0 0 C0.66 0.33 1.32 0.66 2 1 C2 1.66 2 2.32 2 3 C2.66 3 3.32 3 4 3 C4.33 2.34 4.66 1.68 5 1 C7.0625 0.375 7.0625 0.375 9 0 C8.34 1.32 7.68 2.64 7 4 C4.69 4 2.38 4 0 4 C0 2.68 0 1.36 0 0 Z " fill="#FCFCFC" transform="translate(309,97)"/>
<path d="M0 0 C-0.66 2.97 -1.32 5.94 -2 9 C-3.32 7.35 -4.64 5.7 -6 4 C-5.34 4 -4.68 4 -4 4 C-4 3.01 -4 2.02 -4 1 C-2 0 -2 0 0 0 Z " fill="#F0F0F0" transform="translate(365,64)"/>
<path d="M0 0 C2.0625 2.3125 2.0625 2.3125 4 5 C3.67 5.99 3.34 6.98 3 8 C2.67 7.34 2.34 6.68 2 6 C1.34 5.67 0.68 5.34 0 5 C0 4.34 0 3.68 0 3 C-0.66 2.67 -1.32 2.34 -2 2 C-2.33 2.99 -2.66 3.98 -3 5 C-3 3.68 -3 2.36 -3 1 C-2.01 0.67 -1.02 0.34 0 0 Z " fill="#E71616" transform="translate(97,144)"/>
<path d="M0 0 C2.0625 1.75 2.0625 1.75 4 4 C3.75 6.25 3.75 6.25 3 8 C0.525 7.01 0.525 7.01 -2 6 C-1.67 5.34 -1.34 4.68 -1 4 C-0.34 4.33 0.32 4.66 1 5 C0.67 3.35 0.34 1.7 0 0 Z " fill="#EFEFEF" transform="translate(235,59)"/>
<path d="M0 0 C2.97 0.495 2.97 0.495 6 1 C6.33 1.99 6.66 2.98 7 4 C4.69 3.67 2.38 3.34 0 3 C0 2.01 0 1.02 0 0 Z " fill="#F9F7F7" transform="translate(154,107)"/>
<path d="M0 0 C2.39223697 2.39223697 2.6758631 3.67759676 3 7 C2.01 8.485 2.01 8.485 1 10 C0.896875 9.38125 0.79375 8.7625 0.6875 8.125 C0.12474627 5.63473516 0.12474627 5.63473516 -3 4 C-2.67 3.34 -2.34 2.68 -2 2 C-1.67 2.33 -1.34 2.66 -1 3 C-0.67 2.01 -0.34 1.02 0 0 Z " fill="#F1EBEB" transform="translate(304,98)"/>
<path d="M0 0 C0.99 0.33 1.98 0.66 3 1 C3.33 2.98 3.66 4.96 4 7 C3.01 7 2.02 7 1 7 C0.34 6.34 -0.32 5.68 -1 5 C-0.01 5 0.98 5 2 5 C2 4.01 2 3.02 2 2 C1.01 1.67 0.02 1.34 -1 1 C-0.67 0.67 -0.34 0.34 0 0 Z " fill="#F0F0F0" transform="translate(97,59)"/>
<path d="M0 0 C1.61949011 2.57213134 2.04408751 3.67669159 1.625 6.75 C1.41875 7.4925 1.2125 8.235 1 9 C-2.875 4.25 -2.875 4.25 -4 2 C-3.01 2.33 -2.02 2.66 -1 3 C-0.67 2.01 -0.34 1.02 0 0 Z " fill="#EEEEEE" transform="translate(167,12)"/>
<path d="M0 0 C0.99 0.99 1.98 1.98 3 3 C2.67 3.66 2.34 4.32 2 5 C1.34 4.67 0.68 4.34 0 4 C0 5.32 0 6.64 0 8 C-0.66 8 -1.32 8 -2 8 C-2.33 6.35 -2.66 4.7 -3 3 C-2.01 2.67 -1.02 2.34 0 2 C0 1.34 0 0.68 0 0 Z " fill="#F1F1F1" transform="translate(172,8)"/>
<path d="M0 0 C1.61949011 2.57213134 2.04408751 3.67669159 1.625 6.75 C1.41875 7.4925 1.2125 8.235 1 9 C-0.32 7.35 -1.64 5.7 -3 4 C-2.67 3.34 -2.34 2.68 -2 2 C-1.67 2.33 -1.34 2.66 -1 3 C-0.67 2.01 -0.34 1.02 0 0 Z " fill="#EFEFEF" transform="translate(224,151)"/>
<path d="M0 0 C1.61949011 2.57213134 2.04408751 3.67669159 1.625 6.75 C1.41875 7.4925 1.2125 8.235 1 9 C0.87625 8.071875 0.87625 8.071875 0.75 7.125 C0.18741541 4.81562433 0.18741541 4.81562433 -2.0625 3.75 C-2.701875 3.5025 -3.34125 3.255 -4 3 C-3.01 3 -2.02 3 -1 3 C-0.67 2.01 -0.34 1.02 0 0 Z " fill="#EEEEEE" transform="translate(224,65)"/>
<path d="M0 0 C0.33 0 0.66 0 1 0 C1.33 2.64 1.66 5.28 2 8 C1.01 8.495 1.01 8.495 0 9 C-0.28875 8.38125 -0.5775 7.7625 -0.875 7.125 C-1.93720042 4.86674235 -1.93720042 4.86674235 -4 3 C-3.01 3 -2.02 3 -1 3 C-0.67 2.01 -0.34 1.02 0 0 Z " fill="#EEEEEE" transform="translate(167,184)"/>
<path d="M0 0 C1.32 0.33 2.64 0.66 4 1 C3.01 2.32 2.02 3.64 1 5 C1.66 5.33 2.32 5.66 3 6 C3 6.66 3 7.32 3 8 C2.01 8 1.02 8 0 8 C0 5.36 0 2.72 0 0 Z " fill="#F2F1F1" transform="translate(253,132)"/>
<path d="M0 0 C1.61949011 2.57213134 2.04408751 3.67669159 1.625 6.75 C1.41875 7.4925 1.2125 8.235 1 9 C-0.32 7.35 -1.64 5.7 -3 4 C-2.34 3.67 -1.68 3.34 -1 3 C-0.67 2.01 -0.34 1.02 0 0 Z " fill="#EEEEEE" transform="translate(167,98)"/>
<path d="M0 0 C0.33 0 0.66 0 1 0 C1.33 2.64 1.66 5.28 2 8 C1.34 8 0.68 8 0 8 C-1.38938077 6.03852126 -2.7260411 4.03833424 -4 2 C-3.01 2.33 -2.02 2.66 -1 3 C-0.67 2.01 -0.34 1.02 0 0 Z " fill="#EFEFEF" transform="translate(87,65)"/>
<path d="M0 0 C0.66 0.33 1.32 0.66 2 1 C2.33 1.99 2.66 2.98 3 4 C3.66 4.33 4.32 4.66 5 5 C3.35 5.33 1.7 5.66 0 6 C-0.38218767 4.34385343 -0.71395102 2.67542976 -1 1 C-0.67 0.67 -0.34 0.34 0 0 Z " fill="#EFEFEF" transform="translate(286,194)"/>
<path d="M0 0 C2.29013653 3.4352048 2.17842973 4.985331 2 9 C1.67 8.01 1.34 7.02 1 6 C-1.00016466 4.79117904 -1.00016466 4.79117904 -3 4 C-2.34 3.67 -1.68 3.34 -1 3 C-0.67 2.01 -0.34 1.02 0 0 Z " fill="#F0F0F0" transform="translate(304,184)"/>
<path d="M0 0 C1.32 0.33 2.64 0.66 4 1 C3.67 3.31 3.34 5.62 3 8 C2.34 8 1.68 8 1 8 C0.67 6.68 0.34 5.36 0 4 C0.99 4 1.98 4 3 4 C2.01 2.68 1.02 1.36 0 0 Z " fill="#EEEEEE" transform="translate(354,155)"/>
<path d="M0 0 C0.99 0 1.98 0 3 0 C3 1.32 3 2.64 3 4 C3.99 4.33 4.98 4.66 6 5 C4.68 5 3.36 5 2 5 C1.34 4.34 0.68 3.68 0 3 C0 2.01 0 1.02 0 0 Z " fill="#F1F1F1" transform="translate(185,86)"/>
<path d="M0 0 C1.32 0.33 2.64 0.66 4 1 C4 1.66 4 2.32 4 3 C4.99 3.66 5.98 4.32 7 5 C3 5 3 5 1.25 3.625 C0 2 0 2 0 0 Z " fill="#F1F1F1" transform="translate(47,0)"/>
</svg>
